<svg width="390" height="64" viewBox="0 0 390 64" fill="none" xmlns="http://www.w3.org/2000/svg">
    <path d="M68.6 35.4C69.2667 36.2667 69.7 37.2667 69.9 38.4H6.30002L7.00002 35.4H68.6ZM70 30.3C68.8 31.5667 67.8667 32.4667 67.2 33H7.60002L8.20002 30.3H70ZM54.6 25.8C55.3334 25.6667 56 25.4667 56.6 25.2H73.6C73.3334 25.6667 73.0667 26.1333 72.8 26.6C72.6 27 72.3667 27.3667 72.1 27.7H8.80002L9.40002 25.2H24.6L24.4 25.8H54.6ZM75.5 9.8C75.6334 10.1333 75.7 10.4333 75.7 10.7C75.7667 10.9667 75.8334 11.2667 75.9 11.6H12.5L12.9 9.8H75.5ZM73 4.7C73.2 4.96667 73.4 5.23333 73.6 5.5C73.8 5.7 73.9667 5.96667 74.1 6.3H13.7L14.1 4.7H73ZM50.8 59.8L51.7 55.9H67L66.1 59.8H50.8ZM1.40002 59.8L2.30002 55.9H17.5L16.6 59.8H1.40002ZM52 54.5L52.8 50.8H68.1L67.3 54.5H52ZM2.60002 54.5L3.40002 50.8H18.6L17.8 54.5H2.60002ZM54.3 43.8C54.1667 43.2 53.9334 42.6 53.6 42C53.2667 41.3333 52.6334 40.8333 51.7 40.5H70.1C70.1 41.4333 70 42.5333 69.8 43.8H54.3ZM53.2 49.1L54 45.7H69.3L68.5 49.1H53.2ZM3.80002 49.1L4.60002 45.7H19.8L19 49.1H3.80002ZM5.10002 43.8L5.80002 40.5H21L20.3 43.8H5.10002ZM65.1 64H49.8L50.5 61H65.8L65.1 64ZM0.400024 64L1.10002 61H16.3L15.6 64H0.400024ZM59.9 0C62.5 0 64.8 0.3 66.8 0.9H15L15.2 0H59.9ZM10 22.3L10.5 20.1H25.7L25.2 22.3H10ZM75.2 20.1C75.0667 20.9 74.8667 21.6333 74.6 22.3H59.3C59.5667 21.9 59.7334 21.5333 59.8 21.2C59.9334 20.8667 60.0334 20.5667 60.1 20.3V20.1H75.2ZM75.9 15V16C75.9 16.6 75.8667 16.9333 75.8 17H60.1C59.9667 16.6 59.7667 16.2333 59.5 15.9C59.3 15.5667 58.9667 15.2667 58.5 15H75.9ZM11.3 17L11.7 15H26.9L26.5 17H11.3Z" fill="white"></path>
    <path d="M72.8844 59.8L73.7844 55.9H88.9844L88.0844 59.8H72.8844ZM74.0844 54.5L74.8844 50.8H90.0844L89.2844 54.5H74.0844ZM75.2844 49.1L76.0844 45.7H91.2844L90.4844 49.1H75.2844ZM76.5844 43.8L77.2844 40.5H92.4844L91.7844 43.8H76.5844ZM77.7844 38.4L78.4844 35.4H93.6844L92.9844 38.4H77.7844ZM87.0844 64H71.8844L72.5844 61H87.7844L87.0844 64ZM79.0844 33L79.6844 30.3H94.8844L94.2844 33H79.0844ZM80.2844 27.7L80.8844 25.2H96.0844L95.4844 27.7H80.2844ZM81.4844 22.3L81.9844 20.1H97.1844L96.6844 22.3H81.4844ZM82.7844 17L83.1844 15H98.3844L97.9844 17H82.7844ZM83.9844 11.6L84.3844 9.8H99.5844L99.1844 11.6H83.9844ZM85.1844 6.3L85.5844 4.7H100.784L100.384 6.3H85.1844ZM86.6844 0H101.884L101.684 0.9H86.4844L86.6844 0Z" fill="white"></path>
    <path d="M99.2571 54.5C98.9904 53.9667 98.7904 53.4 98.6571 52.8C98.5904 52.1333 98.4904 51.4667 98.3571 50.8H164.057L163.257 54.5H99.2571ZM102.957 59.8C101.624 58.7333 100.624 57.4333 99.9571 55.9H162.957L162.057 59.8H102.957ZM116.657 64C111.59 64 107.557 63 104.557 61H161.757L161.057 64H116.657ZM108.057 11.6C108.257 11.2667 108.457 10.9667 108.657 10.7C108.924 10.4333 109.19 10.1333 109.457 9.8H173.557L173.157 11.6H108.057ZM112.857 6.3C113.19 6.03333 113.557 5.76667 113.957 5.5C114.357 5.23333 114.724 4.96667 115.057 4.7H174.757L174.357 6.3H112.857ZM98.1571 49.1V47.5C98.1571 47.1667 98.1571 46.8667 98.1571 46.6C98.2237 46.3333 98.2904 46.0333 98.3571 45.7H115.457C116.724 47.3667 118.357 48.5 120.357 49.1H98.1571ZM149.257 49.1L150.057 45.7H165.257L164.457 49.1H149.257ZM98.6571 43.8C98.6571 42.6667 98.7904 41.8333 99.0571 41.3L99.2571 40.5H114.457C114.19 41.5667 114.257 42.6667 114.657 43.8H98.6571ZM150.557 43.8L151.257 40.5H166.457L165.757 43.8H150.557ZM99.7571 38.4L100.457 35.4H115.657L114.957 38.4H99.7571ZM151.757 38.4L152.457 35.4H167.657L166.957 38.4H151.757ZM175.857 0L175.657 0.9H123.657C126.057 0.3 128.657 0 131.457 0H175.857ZM101.057 33L101.657 30.3H116.857L116.257 33H101.057ZM153.057 33L153.657 30.3H168.857L168.257 33H153.057ZM105.257 17C105.39 16.6667 105.524 16.3333 105.657 16C105.79 15.6667 105.924 15.3333 106.057 15H127.957C127.09 15.2667 126.29 15.5667 125.557 15.9C124.89 16.2333 124.224 16.6 123.557 17H105.257ZM102.257 27.7L102.857 25.2H118.057L117.457 27.7H102.257ZM154.257 27.7L154.857 25.2H170.057L169.457 27.7H154.257ZM103.457 22.3C103.59 21.9667 103.69 21.6 103.757 21.2C103.824 20.8 103.924 20.4333 104.057 20.1H120.057C119.857 20.4333 119.624 20.8 119.357 21.2C119.157 21.6 118.957 21.9667 118.757 22.3H103.457Z" fill="white"></path>
    <path d="M173.183 54.5C172.916 53.9667 172.716 53.4 172.583 52.8C172.516 52.1333 172.416 51.4667 172.283 50.8H237.983L237.183 54.5H173.183ZM176.883 59.8C175.55 58.7333 174.55 57.4333 173.883 55.9H236.883L235.983 59.8H176.883ZM190.583 64C185.516 64 181.483 63 178.483 61H235.683L234.983 64H190.583ZM181.983 11.6C182.183 11.2667 182.383 10.9667 182.583 10.7C182.85 10.4333 183.116 10.1333 183.383 9.8H247.483L247.083 11.6H181.983ZM186.783 6.3C187.116 6.03333 187.483 5.76667 187.883 5.5C188.283 5.23333 188.65 4.96667 188.983 4.7H248.683L248.283 6.3H186.783ZM172.083 49.1V47.5C172.083 47.1667 172.083 46.8667 172.083 46.6C172.15 46.3333 172.216 46.0333 172.283 45.7H189.383C190.65 47.3667 192.283 48.5 194.283 49.1H172.083ZM223.183 49.1L223.983 45.7H239.183L238.383 49.1H223.183ZM172.583 43.8C172.583 42.6667 172.716 41.8333 172.983 41.3L173.183 40.5H188.383C188.116 41.5667 188.183 42.6667 188.583 43.8H172.583ZM224.483 43.8L225.183 40.5H240.383L239.683 43.8H224.483ZM173.683 38.4L174.383 35.4H189.583L188.883 38.4H173.683ZM225.683 38.4L226.383 35.4H241.583L240.883 38.4H225.683ZM249.783 0L249.583 0.9H197.583C199.983 0.3 202.583 0 205.383 0H249.783ZM174.983 33L175.583 30.3H190.783L190.183 33H174.983ZM226.983 33L227.583 30.3H242.783L242.183 33H226.983ZM179.183 17C179.316 16.6667 179.45 16.3333 179.583 16C179.716 15.6667 179.85 15.3333 179.983 15H201.883C201.016 15.2667 200.216 15.5667 199.483 15.9C198.816 16.2333 198.149 16.6 197.483 17H179.183ZM176.183 27.7L176.783 25.2H191.983L191.383 27.7H176.183ZM228.183 27.7L228.783 25.2H243.983L243.383 27.7H228.183ZM177.383 22.3C177.516 21.9667 177.616 21.6 177.683 21.2C177.749 20.8 177.85 20.4333 177.983 20.1H193.983C193.783 20.4333 193.55 20.8 193.283 21.2C193.083 21.6 192.883 21.9667 192.683 22.3H177.383Z" fill="white"></path>
    <path d="M247.109 54.5C246.842 53.9667 246.642 53.4 246.509 52.8C246.442 52.1333 246.342 51.4667 246.209 50.8H306.809L306.009 54.5H247.109ZM250.809 59.8C249.475 58.7333 248.475 57.4333 247.809 55.9H305.709L304.809 59.8H250.809ZM247.609 38.4L248.309 35.4H310.409L309.709 38.4H247.609ZM248.909 33L249.509 30.3H311.609L311.009 33H248.909ZM250.109 27.7L250.709 25.2H312.809L312.209 27.7H250.109ZM303.809 64H264.509C259.442 64 255.409 63 252.409 61H304.509L303.809 64ZM255.909 11.6C256.109 11.2667 256.309 10.9667 256.509 10.7C256.775 10.4333 257.042 10.1333 257.309 9.8H316.309L315.909 11.6H255.909ZM260.709 6.3C261.042 6.03333 261.409 5.76667 261.809 5.5C262.209 5.23333 262.575 4.96667 262.909 4.7H317.509L317.109 6.3H260.709ZM263.309 45.7C264.575 47.3667 266.209 48.5 268.209 49.1H246.009V47.5C246.009 47.1667 246.009 46.8667 246.009 46.6C246.075 46.3333 246.142 46.0333 246.209 45.7H263.309ZM262.309 40.5C262.042 41.5667 262.109 42.6667 262.509 43.8H246.509C246.509 42.6667 246.642 41.8333 246.909 41.3L247.109 40.5H262.309ZM318.609 0L318.409 0.9H271.509C273.909 0.3 276.509 0 279.309 0H318.609ZM275.809 15C274.942 15.2667 274.142 15.5667 273.409 15.9C272.742 16.2333 272.075 16.6 271.409 17H253.109C253.242 16.6667 253.375 16.3333 253.509 16C253.642 15.6667 253.775 15.3333 253.909 15H275.809ZM267.909 20.1C267.709 20.4333 267.475 20.8 267.209 21.2C267.009 21.6 266.809 21.9667 266.609 22.3H251.309C251.442 21.9667 251.542 21.6 251.609 21.2C251.675 20.8 251.775 20.4333 251.909 20.1H267.909Z" fill="white"></path>
    <path d="M380.654 50.8C380.254 51.4667 379.854 52.1333 379.454 52.8C379.054 53.4 378.621 53.9667 378.154 54.5H312.854L313.654 50.8H380.654ZM376.954 55.9C376.221 56.6333 375.421 57.3333 374.554 58C373.754 58.6667 372.921 59.2667 372.054 59.8H311.654L312.554 55.9H376.954ZM356.454 64H310.654L311.354 61H369.954C365.954 63 361.454 64 356.454 64ZM388.654 9.8L389.154 11.6H322.754L323.154 9.8H388.654ZM385.454 4.7C385.721 4.96667 385.954 5.23333 386.154 5.5C386.354 5.76667 386.554 6.03333 386.754 6.3H323.954L324.354 4.7H385.454ZM383.154 45.7C382.887 46.3 382.654 46.9 382.454 47.5C382.254 48.0333 381.987 48.5667 381.654 49.1H359.454C360.654 48.7667 361.821 48.3333 362.954 47.8C364.087 47.2 365.087 46.5 365.954 45.7H383.154ZM314.054 49.1L314.854 45.7H330.054L329.254 49.1H314.054ZM384.454 41.3C384.187 42.1667 383.987 43 383.854 43.8H367.854C368.521 43.1333 369.054 42.0333 369.454 40.5H384.654L384.454 41.3ZM315.354 43.8L316.054 40.5H331.254L330.554 43.8H315.354ZM325.454 0H371.254C373.921 0 376.354 0.3 378.554 0.9H325.254L325.454 0ZM316.554 38.4L317.254 35.4H332.454L331.754 38.4H316.554ZM369.954 38.4L370.654 35.4H385.854L385.154 38.4H369.954ZM317.854 33L318.454 30.3H333.654L333.054 33H317.854ZM371.254 33L371.854 30.3H387.054L386.454 33H371.254ZM389.554 15C389.621 15.3333 389.621 15.6667 389.554 16C389.554 16.3333 389.587 16.6667 389.654 17H371.254C370.787 16.5333 370.254 16.1667 369.654 15.9C369.054 15.5667 368.421 15.2667 367.754 15H389.554ZM319.054 27.7L319.654 25.2H334.854L334.254 27.7H319.054ZM372.454 27.7L373.054 25.2H388.254L387.654 27.7H372.454ZM389.254 20.1C389.187 20.4333 389.121 20.8 389.054 21.2C389.054 21.6 388.987 21.9667 388.854 22.3H373.454C373.587 21.5667 373.487 20.8333 373.154 20.1H389.254ZM320.254 22.3L320.754 20.1H335.954L335.454 22.3H320.254ZM321.554 17L321.954 15H337.154L336.754 17H321.554Z" fill="white"></path>
                </svg>